# xmcd
#
# Track frame offsets:
#	182
#	16280
#	39030
#	56447
#	68127
#	90835
#	110090
#	127290
#	153337
#	164810
#	175360
#	185890
#	196652
#	209530
#	223592
#	234835
#
# Disc length: 3266 seconds
#
# Revision: 2
# Processed by: cddbd v1.5.2PL0 Copyright (c) Steve Scherf et al.
# Submitted via: audiograbber 1.83.01
#
DISCID=df0cc010
DTITLE=Eric Clapton and The Yardbirds - Eric Clapton and The Yardbirds
DYEAR=1993
DGENRE=Blues
TTITLE0=Louise
TTITLE1=Five Long Years
TTITLE2=Early In The Morning
TTITLE3=Pounds And Stomps
TTITLE4=First Time I Met The Blues
TTITLE5=They Call It Stormy Monday Blues
TTITLE6=Big Boss Man
TTITLE7=She's So Respectable
TTITLE8=Snake Drive
TTITLE9=West Coast Idea
TTITLE10=Eric's Blues
TTITLE11=Got To Hurry
TTITLE12=Freight Loader
TTITLE13=Draggin' My Tail
TTITLE14=For Your Love
TTITLE15=I Wish You Would
EXTD=featuring: Jack Bruce and Ginger Baker
EXTT0=
EXTT1=
EXTT2=
EXTT3=
EXTT4=
EXTT5=
EXTT6=
EXTT7=
EXTT8=
EXTT9=
EXTT10=
EXTT11=
EXTT12=
EXTT13=
EXTT14=
EXTT15=
PLAYORDER=
